<svg preserveAspectRatio="none" width="100%" height="100%" overflow="visible" style="display: block;" viewBox="0 0 17 16" fill="none" xmlns="http://www.w3.org/2000/svg">
<g id="TikTok">
<path id="Vector" d="M12.934 3.69719C12.8325 3.64474 12.7337 3.58723 12.6379 3.5249C12.3595 3.34084 12.1042 3.12396 11.8776 2.87894C11.3106 2.23016 11.0988 1.57198 11.0208 1.11116H11.024C10.9588 0.728663 10.9857 0.48118 10.9898 0.48118H8.40722V10.4676C8.40722 10.6016 8.40722 10.7341 8.40158 10.8651C8.40158 10.8814 8.40002 10.8964 8.39908 10.914C8.39908 10.9212 8.39908 10.9287 8.39751 10.9362C8.39751 10.9381 8.39751 10.94 8.39751 10.9418C8.37029 11.3002 8.25543 11.6463 8.06304 11.9498C7.87065 12.2533 7.60662 12.5049 7.29418 12.6824C6.96855 12.8676 6.60026 12.9648 6.22562 12.9643C5.02236 12.9643 4.04715 11.9831 4.04715 10.7714C4.04715 9.5597 5.02236 8.57854 6.22562 8.57854C6.45339 8.57833 6.67976 8.61418 6.89633 8.68474L6.89946 6.05517C6.24202 5.97024 5.57412 6.02249 4.93789 6.20862C4.30166 6.39474 3.7109 6.7107 3.20289 7.13657C2.75776 7.52333 2.38353 7.98481 2.09705 8.50023C1.98804 8.68819 1.57672 9.44348 1.52691 10.6693C1.49558 11.3651 1.70453 12.0859 1.80415 12.3838V12.3901C1.8668 12.5655 2.10959 13.1642 2.50524 13.6688C2.82429 14.0737 3.20123 14.4293 3.62393 14.7242V14.718L3.63019 14.7242C4.88045 15.5738 6.26666 15.5181 6.26666 15.5181C6.50662 15.5084 7.31047 15.5181 8.22333 15.0854C9.23582 14.6058 9.81223 13.8913 9.81223 13.8913C10.1805 13.4643 10.4733 12.9777 10.6781 12.4524C10.9118 11.8381 10.9898 11.1013 10.9898 10.8068V5.50883C11.0211 5.52762 11.4384 5.80361 11.4384 5.80361C11.4384 5.80361 12.0396 6.18893 12.9775 6.43986C13.6504 6.61842 14.557 6.65602 14.557 6.65602V4.09223C14.2393 4.12669 13.5943 4.02644 12.934 3.69719Z" fill="var(--fill-0, #2C2C2C)"/>
</g>
</svg>
